{"title":"Donnie Brasco (1997) DVDRip XviD AC3 peaSoup","uid":8935215,"size":734328832,"categoryP":"video","categoryS":"movies","magnet":"?xt=urn:btih:522456ac08302427581c2afd24f2ad8103ed520b&amp;dn=Donnie+Brasco+%281997%29+DVDRip+XviD+AC3+peaSoup&amp;tr=udp%3A%2F%2Ftracker.openbittorrent.com%3A80&amp;tr=udp%3A%2F%2Fopen.demonii.com%3A1337&amp;tr=udp%3A%2F%2Ftracker.coppersurfer.tk%3A6969&amp;tr=udp%3A%2F%2Fexodus.desync.com%3A6969","seeders":4,"leechers":0,"uploader":"peaSoup","files":-1,"time":1379547221,"description":"Storyline\n\nThis true story follows FBI agent Joe Pistone as he infiltrates the mafia of New York. Befriending Lefty Ruggiero, Pistone (under the name Donnie Brasco) is able to embed himself in a mafia faction lead by Sonny Black. Ruggiero and Pistone become tight as the group goes about collecting money for 'the bosses'. Eventually, the group become big time when Black himself becomes a boss, all the while Pistone collects evidence. However, the trials and tribulations of the undercover work become more than Pistone can bear. His marriage falls apart and to top it off, the mafia suspect a mole in the organization. The real dilemma is afforded to Pistone, who knows if he walks away from the mafia, Ruggiero will be the one punished.       &lt;a href=&quot; http://imageshack.us/a/img849/8809/qu4a.jpg&quot; rel=&quot;nofollow&quot; target=&quot;_NEW&quot;&gt; http://imageshack.us/a/img849/8809/qu4a.jpg&lt;/a&gt;                                         &lt;a href=&quot; http://imageshack.us/a/img822/1194/oxhh.jpg&quot; rel=&quot;nofollow&quot; target=&quot;_NEW&quot;&gt; http://imageshack.us/a/img822/1194/oxhh.jpg&lt;/a&gt;                                         &lt;a href=&quot; http://imageshack.us/a/img571/7020/ecw1.jpg&quot; rel=&quot;nofollow&quot; target=&quot;_NEW&quot;&gt; http://imageshack.us/a/img571/7020/ecw1.jpg&lt;/a&gt;                                         &lt;a href=&quot; http://imageshack.us/a/img833/8518/mcno.jpg&quot; rel=&quot;nofollow&quot; target=&quot;_NEW&quot;&gt; http://imageshack.us/a/img833/8518/mcno.jpg&lt;/a&gt;                                         &lt;a href=&quot; http://imageshack.us/a/img826/8093/zmvx.jpg&quot; rel=&quot;nofollow&quot; target=&quot;_NEW&quot;&gt; http://imageshack.us/a/img826/8093/zmvx.jpg&lt;/a&gt;                                          Format                                   : AVI\nFormat/Info                              : Audio Video Interleave\nFile size                                : 700 MiB\nDuration                                 : 2h 10mn\nOverall bit rate                         : 749 Kbps\nWriting application                      : VirtualDubMod 1.5.4.1 (build 2178/release)\nWriting library                          : VirtualDubMod build 2178/release\n\nVideo\nID                                       : 0\nFormat                                   : MPEG-4 Visual\nFormat profile                           : Advanced Simple@L5\nFormat settings, BVOP                    : 1\nFormat settings, QPel                    : No\nFormat settings, GMC                     : No warppoints\nFormat settings, Matrix                  : Custom\nCodec ID                                 : XVID\nCodec ID/Hint                            : XviD\nDuration                                 : 2h 10mn\nBit rate                                 : 294 Kbps\nWidth                                    : 720 pixels\nHeight                                   : 320 pixels\nDisplay aspect ratio                     : 2.25:1\nFrame rate                               : 25.000 fps\nColor space                              : YUV\nChroma subsampling                       : 4:2:0\nBit depth                                : 8 bits\nScan type                                : Progressive\nCompression mode                         : Lossy\nBits/(Pixel*Frame)                       : 0.051\nStream size                              : 275 MiB (39%)\nWriting library                          : XviD 1.2.1 (UTC 2008-12-04)\n\nAudio\nID                                       : 1\nFormat                                   : AC-3\nFormat/Info                              : Audio Coding 3\nFormat profile                           : Dolby Digital\nMode extension                           : CM (complete main)\nFormat settings, Endianness              : Big\nCodec ID                                 : 2000\nDuration                                 : 2h 10mn\nBit rate mode                            : Constant\nBit rate                                 : 448 Kbps\nChannel(s)                               : 2 channels\nChannel positions                        : Front: L R\nSampling rate                            : 48.0 KHz\nBit depth                                : 16 bits\nCompression mode                         : Lossy\nStream size                              : 419 MiB (60%)\nAlignment                                : Split accross interleaves\nInterleave, duration                     : 96 ms (2.40 video frames)\nInterleave, preload duration             : 96 ms\n\n","torrent":{"xt":"urn:btih:522456ac08302427581c2afd24f2ad8103ed520b","amp;dn":"Donnie+Brasco+%281997%29+DVDRip+XviD+AC3+peaSoup","amp;tr":["udp%3A%2F%2Ftracker.openbittorrent.com%3A80","udp%3A%2F%2Fopen.demonii.com%3A1337","udp%3A%2F%2Ftracker.coppersurfer.tk%3A6969","udp%3A%2F%2Fexodus.desync.com%3A6969"],"infoHash":"522456ac08302427581c2afd24f2ad8103ed520b","infoHashBuffer":{"type":"Buffer","data":[82,36,86,172,8,48,36,39,88,28,42,253,36,242,173,129,3,237,82,11]},"announce":[],"urlList":[]}}